<svg xmlns="http://www.w3.org/2000/svg" width="36px" height="36px" viewBox="0 0 24 24"><path d="M24 12c0 6.629-5.371 12-12 12S0 18.629 0 12 5.371 0 12 0s12 5.371 12 12m0 0" style="stroke:none;fill-rule:nonzero;fill:#ffa733;fill-opacity:1"/><path d="M12.055 15.05a2.734 2.734 0 0 1-2.735-2.73 2.733 2.733 0 0 1 5.465 0 2.733 2.733 0 0 1-2.73 2.73m0-4.515a1.786 1.786 0 0 0 0 3.57c.985 0 1.785-.8 1.785-1.785a1.79 1.79 0 0 0-1.785-1.785m0-1.995a2.043 2.043 0 0 1-2.04-2.04 2.04 2.04 0 0 1 2.04-2.04 2.04 2.04 0 0 1 0 4.08m0-3.134c-.602 0-1.094.492-1.094 1.094 0 .598.492 1.09 1.094 1.09.597 0 1.09-.492 1.09-1.09 0-.602-.493-1.094-1.09-1.094m4.437 12.813a2.04 2.04 0 0 1 0-4.078 2.04 2.04 0 0 1 2.04 2.039 2.04 2.04 0 0 1-2.04 2.039m0-3.133c-.597 0-1.09.492-1.09 1.09 0 .601.493 1.094 1.09 1.094a1.091 1.091 0 1 0 0-2.184m-8.984 3.133a2.04 2.04 0 0 1-2.04-2.04 2.04 2.04 0 0 1 2.04-2.038 2.04 2.04 0 0 1 0 4.078m0-3.133c-.602 0-1.094.492-1.094 1.09 0 .601.492 1.094 1.094 1.094.597 0 1.09-.493 1.09-1.094 0-.598-.493-1.09-1.09-1.09m0 0" style="stroke:none;fill-rule:nonzero;fill:#fff;fill-opacity:1"/><path d="M15.16 15.543a.48.48 0 0 1-.289-.098l-1.512-1.148a.474.474 0 1 1 .574-.754l1.512 1.148c.207.16.246.457.09.664a.47.47 0 0 1-.375.188m-6.37.117a.474.474 0 0 1-.29-.852l1.512-1.152a.48.48 0 0 1 .664.094.47.47 0 0 1-.09.66l-1.512 1.152a.47.47 0 0 1-.285.098m3.266-5.125a.48.48 0 0 1-.477-.473v-2c0-.257.215-.472.477-.472.258 0 .472.215.472.473v2a.474.474 0 0 1-.472.472m0 0" style="stroke:none;fill-rule:nonzero;fill:#fff;fill-opacity:1"/></svg>