<svg xmlns="http://www.w3.org/2000/svg" xml:space="preserve" x="0px" y="0px" viewBox="0 0 719.4 719.4"><path d="M359.7 0c202.6 0 359.7 148.5 359.7 348.9S562.3 697.8 359.7 697.8c-36.4 0-71.4-4.7-104.2-13.8-6.4-1.7-13.2-1.2-19.2 1.5L165 716.9c-18.6 8.2-39.7-5.1-40.3-25.5l-2-64c-.4-8-3.8-15.3-9.7-20.5C42.9 544.3 0 453.8 0 348.9 0 148.5 157.1 0 359.7 0" style="fill-rule:evenodd;clip-rule:evenodd;fill:#0384ff"/><path d="M575.7 268.4c10.2-16-9.7-34.2-24.7-22.8l-113.5 86.1c-7.6 5.8-18.2 5.9-26 .1l-84-63c-25.2-18.9-61.3-12.3-78 14.4L143.8 451c-10.2 16.1 9.6 34.3 24.7 22.8l113.6-86.1c7.6-5.8 18.2-5.9 26-.1l84 63c25.2 18.9 61.3 12.3 78-14.4z" style="fill-rule:evenodd;clip-rule:evenodd;fill:#fff"/></svg>