<svg xmlns="http://www.w3.org/2000/svg" width="20" height="20" fill="none" viewBox="0 0 20 20"><g clip-path="url(#a)"><path fill="url(#b)" d="M10 20C4.478 20 0 15.522 0 10S4.478 0 10 0s10 4.478 10 10-4.478 10-10 10"/><path fill="#fff" d="M10 4.404c1.822 0 2.038.006 2.758.04.666.03 1.028.142 1.268.236.318.124.546.272.784.51s.386.466.51.784c.094.24.204.602.236 1.268.032.72.04.936.04 2.758s-.006 2.038-.04 2.758c-.03.666-.142 1.028-.236 1.268a2.1 2.1 0 0 1-.51.784 2.1 2.1 0 0 1-.784.51c-.24.094-.602.204-1.268.236-.72.032-.936.04-2.758.04s-2.038-.006-2.758-.04c-.666-.03-1.028-.142-1.268-.236a2.1 2.1 0 0 1-.784-.51 2.1 2.1 0 0 1-.51-.784c-.094-.24-.204-.602-.236-1.268-.032-.72-.04-.936-.04-2.758s.006-2.038.04-2.758c.03-.666.142-1.028.236-1.268.124-.318.272-.546.51-.784s.466-.386.784-.51c.24-.094.602-.204 1.268-.236.72-.034.936-.04 2.758-.04m0-1.23c-1.854 0-2.086.008-2.814.042-.726.034-1.222.148-1.658.318-.448.172-.83.406-1.208.786-.38.38-.612.76-.788 1.21-.168.434-.284.93-.318 1.658s-.042.96-.042 2.814.008 2.086.042 2.814c.034.726.148 1.222.318 1.658.174.446.408.828.788 1.206.38.38.76.612 1.21.788.434.168.93.284 1.658.318s.96.042 2.814.042 2.086-.008 2.814-.042c.726-.034 1.222-.148 1.658-.318a3.3 3.3 0 0 0 1.206-.788c.38-.38.612-.76.788-1.21.168-.434.284-.93.318-1.658s.042-.96.042-2.814-.008-2.086-.042-2.814c-.034-.726-.148-1.222-.318-1.658a3.3 3.3 0 0 0-.788-1.206 3.4 3.4 0 0 0-1.21-.788c-.434-.168-.93-.284-1.658-.318-.726-.032-.958-.04-2.812-.04"/><path fill="#fff" d="M10 6.494a3.506 3.506 0 1 0 0 7.013 3.506 3.506 0 0 0 0-7.013m0 5.782a2.276 2.276 0 1 1 0-4.552 2.276 2.276 0 0 1 0 4.552m3.644-5.1a.82.82 0 1 0 0-1.64.82.82 0 0 0 0 1.64"/></g><defs><linearGradient id="b" x1="2.92892" x2="17.0711" y1="17.0711" y2="2.92892" gradientUnits="userSpaceOnUse"><stop stop-color="#FFD521"/><stop offset="0.0551048" stop-color="#FFD020"/><stop offset="0.1241" stop-color="#FEC01E"/><stop offset="0.2004" stop-color="#FCA71B"/><stop offset="0.2821" stop-color="#FA8316"/><stop offset="0.3681" stop-color="#F85510"/><stop offset="0.4563" stop-color="#F51E09"/><stop offset="0.5" stop-color="#F30005"/><stop offset="0.5035" stop-color="#F20007"/><stop offset="0.5966" stop-color="#E1003B"/><stop offset="0.6879" stop-color="#D30067"/><stop offset="0.7757" stop-color="#C70088"/><stop offset="0.8589" stop-color="#BF00A0"/><stop offset="0.9357" stop-color="#BB00AF"/><stop offset="1" stop-color="#B900B4"/></linearGradient><clipPath id="a"><path fill="#fff" d="M0 0h20v20H0z"/></clipPath></defs></svg>