<svg xmlns="http://www.w3.org/2000/svg" width="20" height="20" fill="none" viewBox="0 0 20 20"><g clip-path="url(#a)"><path fill="#00B900" d="M10 20c5.523 0 10-4.477 10-10S15.523 0 10 0 0 4.477 0 10s4.477 10 10 10"/><path fill="#fff" d="M16.496 9.478c0-2.908-2.916-5.275-6.5-5.275s-6.5 2.367-6.5 5.275c0 2.608 2.313 4.791 5.436 5.204.212.046.5.14.573.32.065.165.043.422.02.588l-.092.557c-.028.164-.13.643.563.35.694-.292 3.743-2.204 5.107-3.774.942-1.033 1.393-2.08 1.393-3.245m-2.165-.696h-1.238v.478h1.238c.07 0 .127.057.127.127v.456c0 .07-.057.127-.127.127h-1.238v.478h1.238c.07 0 .127.057.127.127v.456c0 .07-.057.127-.127.127H12.51a.126.126 0 0 1-.127-.127V8.2a.13.13 0 0 1 .038-.09h.001a.13.13 0 0 1 .088-.036h1.821c.07 0 .127.056.127.126v.456c0 .07-.057.127-.127.127m-2.517-.71c.07 0 .126.057.126.127v2.832c0 .07-.056.127-.127.127h-.455a.1.1 0 0 1-.033-.005h-.002l-.012-.004-.006-.003-.006-.003-.004-.002-.008-.005h-.001a.1.1 0 0 1-.032-.032l-1.3-1.755v1.682c0 .07-.056.127-.126.127h-.456a.127.127 0 0 1-.127-.127V8.2c0-.07.057-.126.127-.126h.467l.006.001h.006l.007.002.004.002.008.002.004.002q.004 0 .007.003l.004.001.01.007.007.004.004.003.006.005.003.002.007.008.001.001.01.013 1.298 1.753V8.199c0-.07.057-.126.127-.126zm-3.139 0c.07 0 .127.057.127.127v2.832c0 .07-.057.127-.127.127H8.22a.127.127 0 0 1-.126-.127V8.2c0-.07.057-.126.126-.126zm-1.099 2.376c.07 0 .127.057.127.127v.456c0 .07-.057.127-.127.127H5.755a.13.13 0 0 1-.088-.036l-.001-.002-.002-.001a.13.13 0 0 1-.036-.088V8.199c0-.07.057-.126.127-.126h.456c.07 0 .127.056.127.126v2.25z"/></g><defs><clipPath id="a"><path fill="#fff" d="M0 0h20v20H0z"/></clipPath></defs></svg>