<svg xmlns="http://www.w3.org/2000/svg" xml:space="preserve" x="0px" y="0px" viewBox="0 0 719.4 585.9"><path d="M270.7 550.4c-21.5 0-17.8-7.9-25.2-27.7l-63-201.4L667.7 41.8l6.9 13.2z" style="fill-rule:evenodd;clip-rule:evenodd;fill:#d4f1ff"/><path d="M270.7 550.4c16.5 0 23.8-7.3 33-16l88.1-83.3-110-64.4z" style="fill-rule:evenodd;clip-rule:evenodd;fill:#1685bf"/><path d="m281.9 386.6 266.7 191.3c30.4 16.3 52.4 7.9 59.9-27.4L716.9 53.9c11.1-43.2-17-62.8-46.1-50L33.6 242.5c-43.5 17-43.3 40.5-7.9 51L189.2 343l446-274.4c17.9-10.5 36.7-17.7 23.2-6.1z" style="fill-rule:evenodd;clip-rule:evenodd;fill:#27a5e7"/></svg>