<svg xmlns="http://www.w3.org/2000/svg" xml:space="preserve" id="Layer_1" x="0px" y="0px" version="1.1" viewBox="0 0 719.4 719.4"><style>.st0{fill-rule:evenodd;clip-rule:evenodd;fill:#665cac}</style><path d="M638.1 70.2C619.3 53.8 543.1 1.3 373.5.5c0 0-200.1-11.5-297.6 73.4C21.5 125.4 2.4 200.8.5 294.3c-2.1 93.5-4.7 268.5 173.3 316.1h.1l-.1 72.4s-1.2 29.4 19.2 35.3c24.6 7.3 39-15 62.7-39.1 12.9-13.2 30.7-32.6 44.2-47.3 121.7 9.7 215.3-12.6 226-15.8 24.6-7.5 163.7-24.6 186.2-199.5 23.3-180.5-11.4-294.7-74-346.2" class="st0"/><path d="M658.8 403.4c-19.1 146.1-132 155.5-152.7 161.7-8.8 2.7-91 22.1-194.4 15.7 0 0-77.1 88.1-101 111.1-3.8 3.6-8.2 5.1-11.2 4.3-4.2-1-5.2-5.7-5.2-12.5.1-9.8.6-120.4.6-120.4-150.4-39.5-141.6-188.6-140-266.7 1.7-78.1 17.2-141.9 63.1-185 82.6-70.8 252.5-60.3 252.5-60.3 143.6.6 212.3 41.6 228.2 55.2 52.9 43.2 79.8 146.2 60.1 296.9" style="fill-rule:evenodd;clip-rule:evenodd;fill:#fff"/><path d="M386.1 228.1c19.8 1 35.2 6.8 45.8 17.3 10.7 10.4 16.5 25.4 17.4 44.6.1 3.3-2.5 6-6 6.2.1.1 0 .1-.1.1-3.4 0-6.1-2.5-6.2-5.7-1.7-32.8-18.1-49-51.5-50.6-3.5-.1-6.1-3-6-6.3s3.1-5.8 6.6-5.6m70.7-1.4c-20.7-21.3-48.8-32.9-85.8-35.4-3.5-.2-6-3.1-5.9-6.3.3-3.3 3.3-5.7 6.6-5.5 39.9 2.7 71.6 15.9 94.3 39.2 22.6 23.4 33.7 52.8 32.9 87.6-.3 3.2-3 5.7-6.4 5.7h-.1c-3.5-.1-6.2-2.8-6.1-6 .7-32.1-8.9-58-29.5-79.3m35.8-42.6c36.9 34.3 55.9 81.6 56.4 140.6.1 3.2-2.7 5.9-6.2 5.9-3.4 0-6.2-2.6-6.2-5.9-.4-55.7-18.2-100.1-52.7-132.2-34.6-32-78.2-48.3-129.6-48.6-3.5 0-6.2-2.7-6.2-5.9s2.9-5.9 6.2-5.9c54.9.4 101.3 17.9 138.3 52m43.3 278.3c0 .1-.1.2-.1.2-7.3 12.2-17 23.8-29.5 34.4-.1.1-.1.1-.3.2-10.1 8-20.2 12.6-29.9 13.7-1.2.2-2.6.4-4.3.2-4.3 0-8.6-.5-12.7-1.8l-.4-.5c-15.1-3.9-40.3-14.2-82.3-36-27.3-14.3-49.9-28.9-69.1-43.3-10.1-7.5-20.5-16.2-31.1-26.1l-1-1-1-1c-.4-.4-.6-.6-1.1-1l-1-1c-10.5-10-19.6-19.9-27.6-29.5-15.2-18.1-30.7-39.7-45.6-65.5-23.1-39.8-33.8-63.7-38-78.1l-.5-.4c-1.4-3.9-2.1-8-2-12.1-.1-1.6 0-3.1.3-4.1 1.2-9.2 6-18.7 14.4-28.4.1-.1.1-.1.3-.2 11.3-11.7 23.3-21.1 36.3-28 .1 0 .3-.1.3-.1 13.7-6.7 26.7-4.4 35.4 5.5.1.1 18.3 20.8 26.1 30.9 7.4 9.6 17.4 24.8 22.4 33.4 9 15.3 3.4 30.9-5.5 37.5l-17.8 13.4c-9 6.9-7.8 19.6-7.8 19.6s26.5 94.7 125.1 118.6c0 0 13.5 1.1 20.7-7.4l14.2-16.9c6.9-8.4 23.3-13.7 39.5-5.2 9 4.8 25.1 14.3 35.2 21.2 10.7 7.4 32.6 24.8 32.6 24.8 10.5 8.7 12.9 21 5.8 34" class="st0"/></svg>