<svg xmlns="http://www.w3.org/2000/svg" xml:space="preserve" x="0px" y="0px" viewBox="0 0 719.4 597.7"><path d="M719.4 390.7c0-102.5-97-185.6-216.7-185.6-119.7.1-216.7 83-216.7 185.6 0 102.1 97 185.2 216.7 185.5 24.7-.4 48.6-4 71.1-10.8 1.7-.5 1.5-.4 5.9-1.3 4.3-.9 8.1 1.3 11.4 3.2l46.7 28.5c2.2 1.1 3.5 1.8 5.2 1.8 3.8 0 7-3.3 6.9-7.1.1-2.1-.6-3.8-1.1-5.6s-6.3-23.5-9.4-37.2c-.4-1.9-.6-3-.6-6.7s1.8-7.6 5.9-11.1c45.4-33.2 74.7-83.5 74.7-139.2M502.8 187.3c4.6-.1 9.2 0 13.9 0C497.2 81.3 389.7 0 260.1 0 116.4.1 0 99.6 0 223c0 66.5 35.1 126.7 90.2 167.7 4.1 3 6.3 6.6 6.3 12.5 0 2-.4 4.2-1 7.1-4.6 19.4-9.7 41.6-10.5 44.6-.7 3-1.8 4.9-1.7 7.1-.1 4.9 3.7 8.9 8.6 8.9 1.7 0 3.3-.8 5.2-1.8l57.2-33.9c3.6-2.3 7.6-3.4 10.4-3.4s7.4.9 10.3 1.6c26.6 7 55.1 11.4 85 10.8 4.7.6 9.5.5 13.9 0-5.4-17.1-8.5-35.3-8.6-53.5.2-112.9 106.3-203.6 237.5-203.4" style="fill-rule:evenodd;clip-rule:evenodd;fill:#16ad1a"/><path d="M429 352c-14.5 0-26.9-12.8-26.9-29.4 0-14.9 12.4-27.7 26.9-27.7 16.1 0 28.5 12.8 28.5 27.7.2 16.7-12.3 29.4-28.5 29.4m143.9 0c-14.5 0-26.9-12.8-26.9-29.4 0-14.9 12.4-27.7 26.9-27.7 16.1 0 28.5 12.8 28.5 27.7.1 16.7-12.4 29.4-28.5 29.4M345 109.4c19.2 0 34.7 15.9 34.7 35.7-.1 19.7-15.6 35.7-34.7 35.7-19.2 0-34.7-16-34.7-35.7s15.5-35.7 34.7-35.7m-173.4 71.4c-19.2 0-34.7-16-34.7-35.7s15.5-35.7 34.7-35.7 34.7 15.9 34.7 35.7-15.5 35.7-34.7 35.7" style="fill-rule:evenodd;clip-rule:evenodd;fill:#fff"/></svg>