<svg xmlns="http://www.w3.org/2000/svg" width="224" height="224" fill="none" viewBox="0 0 224 224"><g clip-path="url(#a)"><path fill="#21D366" fill-rule="evenodd" d="M191.368 32.57C170.32 11.582 142.327.03 112.467 0 50.94 0 .934 49.788.934 111.004c0 19.554 5.138 38.672 14.884 55.486L0 224l59.13-15.444c16.284 8.843 34.624 13.514 53.337 13.514 61.496 0 111.502-49.789 111.533-111.004 0-29.674-11.583-57.541-32.632-78.497m-79.43 171.751c-16.627 0-32.943-4.452-47.173-12.859l-3.394-1.993-35.091 9.154 9.403-34.064-2.21-3.487a91.53 91.53 0 0 1-14.168-49.103c0-50.878 41.6-92.26 92.726-92.26 24.754 0 48.013 9.622 65.513 27.059 17.499 17.437 27.151 40.634 27.12 65.263-.031 50.878-41.599 92.29-92.726 92.29M72.581 59.72c1.837 0 3.705 0 5.324.062 1.993.062 4.203.187 6.29 4.795 2.46 5.48 7.877 19.18 8.469 20.55.685 1.433 1.152 3.021.218 4.89-.934 1.867-1.401 3.02-2.771 4.639-1.401 1.65-2.927 3.643-4.173 4.888-1.4 1.37-2.864 2.865-1.245 5.636s7.224 11.832 15.506 19.212c10.649 9.496 19.616 12.392 22.419 13.793 2.802 1.37 4.421 1.152 6.04-.685s6.975-8.095 8.843-10.867c1.9-2.771 3.737-2.304 6.29-1.37 2.553.903 16.285 7.629 19.056 9.03 2.802 1.37 4.67 2.086 5.355 3.238.685 1.184.685 6.726-1.619 13.202-2.304 6.446-13.731 12.704-18.838 13.171-5.075.468-9.901 2.305-33.441-6.943-28.303-11.147-46.207-40.042-47.608-41.879-1.402-1.838-11.365-15.008-11.365-28.678 0-13.669 7.223-20.394 9.745-23.166 2.647-2.833 5.636-3.518 7.505-3.518" clip-rule="evenodd"/></g><defs><clipPath id="a"><path fill="#fff" d="M0 0h224v224H0z"/></clipPath></defs></svg>